<?xml version="1.0" standalone="no"?><!DOCTYPE svg PUBLIC "-//W3C//DTD SVG 1.1//EN" "http://www.w3.org/Graphics/SVG/1.1/DTD/svg11.dtd"><svg t="1522379795396" class="icon" style="" viewBox="0 0 1027 1024" version="1.1" xmlns="http://www.w3.org/2000/svg" p-id="16208" xmlns:xlink="http://www.w3.org/1999/xlink" width="200.5859375" height="200"><defs><style type="text/css"></style></defs><path d="M255.424 1021.824C114.581333 1021.824 0 907.242667 0 766.421333c0-140.864 114.581333-255.424 255.424-255.424 140.842667 0 255.424 114.56 255.424 255.424C510.848 907.242667 396.266667 1021.824 255.424 1021.824zM255.424 624.725333c-78.122667 0-141.696 63.552-141.696 141.696 0 78.122667 63.552 141.674667 141.696 141.674667s141.696-63.552 141.696-141.674667C397.12 688.277333 333.546667 624.725333 255.424 624.725333z" p-id="16209"></path><path d="M638.826667 430.421333c-118.677333 0-215.210667-96.533333-215.210667-215.210667C423.616 96.533333 520.149333 0 638.826667 0s215.232 96.533333 215.232 215.210667C854.058667 333.888 757.525333 430.421333 638.826667 430.421333zM638.826667 113.728c-55.957333 0-101.482667 45.525333-101.482667 101.504 0 55.957333 45.525333 101.482667 101.482667 101.482667s101.482667-45.525333 101.482667-101.482667C740.309333 159.253333 694.784 113.728 638.826667 113.728z" p-id="16210"></path><path d="M863.914667 910.08c-89.472 0-162.261333-72.768-162.261333-162.24s72.789333-162.24 162.261333-162.24c89.450667 0 162.24 72.768 162.24 162.24S953.365333 910.08 863.914667 910.08zM863.914667 699.306667c-26.773333 0-48.490667 21.781333-48.490667 48.512s21.738667 48.490667 48.490667 48.490667c26.752 0 48.490667-21.76 48.490667-48.490667S890.666667 699.306667 863.914667 699.306667z" p-id="16211"></path><path d="M491.144431 303.804535l93.757363 64.370048-177.533824 258.584602-93.757363-64.370048 177.533824-258.584602Z" p-id="16212"></path><path d="M747.542234 340.61315l122.765306 260.505502-102.897647 48.491341-122.765306-260.505502 102.897647-48.491341Z" p-id="16213"></path></svg>