<?xml version="1.0" standalone="no"?><!DOCTYPE svg PUBLIC "-//W3C//DTD SVG 1.1//EN" "http://www.w3.org/Graphics/SVG/1.1/DTD/svg11.dtd"><svg t="1522379084247" class="icon" style="" viewBox="0 0 1024 1024" version="1.1" xmlns="http://www.w3.org/2000/svg" p-id="12270" xmlns:xlink="http://www.w3.org/1999/xlink" width="200" height="200"><defs><style type="text/css"></style></defs><path d="M929.316036 900.680347l-25.810852 0 0-526.971993c0-22.306029-8.694009-43.279712-24.452925-59.010999-15.757892-15.757892-36.732599-24.452925-59.010999-24.452925L625.294834 290.24443 625.294834 151.140279c0-22.306029-8.694009-43.279712-24.452925-59.010999-15.757892-15.757892-36.732599-24.452925-59.010999-24.452925l-333.853647 0c-22.278399 0-43.253106 8.694009-59.010999 24.425296-15.757892 15.730263-24.451902 36.70497-24.451902 59.037605l0 749.541091-29.831422 0c-15.377222 0-27.821649 12.443403-27.821649 27.821649s12.443403 27.821649 27.821649 27.821649l834.634118 0c15.377222 0 27.821649-12.443403 27.821649-27.821649S944.694281 900.680347 929.316036 900.680347zM347.083461 790.999318l-111.284549 0 0-111.284549 111.284549 0L347.083461 790.999318zM347.083461 568.43022l-111.284549 0 0-111.284549 111.284549 0L347.083461 568.43022zM347.083461 345.861122l-111.284549 0 0-111.284549 111.284549 0L347.083461 345.861122zM514.010285 790.999318 402.725736 790.999318l0-111.284549 111.284549 0L514.010285 790.999318zM514.010285 568.43022 402.725736 568.43022l0-111.284549 111.284549 0L514.010285 568.43022zM514.010285 345.861122 402.725736 345.861122l0-111.284549 111.284549 0L514.010285 345.861122zM792.221658 790.999318l-111.284549 0 0-111.284549 111.284549 0L792.221658 790.999318zM792.221658 568.43022l-111.284549 0 0-111.284549 111.284549 0L792.221658 568.43022z" p-id="12271"></path></svg>