<?xml version="1.0" standalone="no"?><!DOCTYPE svg PUBLIC "-//W3C//DTD SVG 1.1//EN" "http://www.w3.org/Graphics/SVG/1.1/DTD/svg11.dtd"><svg t="1522383530204" class="icon" style="" viewBox="0 0 1024 1024" version="1.1" xmlns="http://www.w3.org/2000/svg" p-id="32699" xmlns:xlink="http://www.w3.org/1999/xlink" width="200" height="200"><defs><style type="text/css"></style></defs><path d="M591.762 74.498c-4.253-6.559-5.616-10.998-5.616-10.998l2.028-1.863s3.938 1.632 10.835 4.451l11.791 4.695c4.485 1.619 9.379 3.518 14.633 4.8 2.575 0.791 5.207 1.597 7.922 1.899 1.363 0.187 2.679 0.56 4.031 0.804 1.341 0.093 2.679 0.14 4.031 0.314 5.418 0.722 10.404 0.129 15.857-0.151 2.528-0.932 5.347-1.2 8.097-2.377 2.528-1.491 5.825-2.353 8.167-4.265 1.247-0.863 2.528-1.747 3.915-2.622 1.434-0.804 2.959-1.445 4.485-3.1l9.647-8.097c0.093-0.129-0.571 0.827-0.244 0.385l0.069-0.069 0.163-0.14 2.224-1.981 2.528-2.225 4.777-4.521c3.006-3.1 6.781-5.511 9.81-8.494 2.982-3.075 6.991-4.974 10.172-7.957 3.413-2.691 7.397-4.707 11.244-7.305 8.074-3.809 17.523-6.629 25.97-5.441 2.121 0.222 4.182 0.56 6.21 0.932 1.957 0.547 3.798 1.212 5.616 1.899 3.728 1.223 6.944 2.994 9.962 4.73 13.274 7.799 23.5 19.559 29.186 33.638-3.554-7.833-2.307-4.955-1.422-2.986l1.119 3.122-2.028 1.888s-4.347-1.468-11.010-4.253c-3.25-1.305-7.188-2.924-11.721-4.754-4.369-1.794-9.169-3.775-14.25-5.488-2.528-0.932-5.138-1.899-7.782-2.54-1.341-0.326-2.668-0.851-4.009-1.247-3.406-0.683-6.429-1.762-9.231-3.21-0.241 0.379-5.881-1.369-12.848-2.102-3.204 0.431-7.013 0.291-10.357 1.678-3.204 1.632-6.875 2.878-9.45 5.767-2.598 2.784-5.557 5.22-7.375 8.773l-2.644 5.29-1.212 2.668-0.594 1.316-0.291 0.676-0.14 0.314-0.069 0.163-0.047 0.093c0.269-0.385-0.407 0.618-0.361 0.56l-5.207 11.475c-1.701 3.693-5.616 7.865-8.807 11.547-3.25 3.996-7.596 6.303-11.465 9.437-4.055 2.844-8.982 4.485-13.515 6.548-9.623 2.75-19.678 3.239-28.148 0.978-6.714-1.383-12.652-3.981-17.851-7.571-3.276-0.665-11.154-6.503-17.562-13.683 2.677 4.53-6.209-5.334-12.196-16.938 3.979 8.682-1.811-1.168-4.965-12.133zM1007.406 725.141v236.198h-990.811v-236.198h67.493v-265.348l190.189-133.438v133.438l190.164-133.438v133.438l190.189-133.438v262.284h65.629l35.639-463.959h108.772l31.201 463.959h73.179v136.513h38.354zM327.183 623.137h-149.526v138.039h149.526v-138.039zM584.841 623.137h-149.526v138.039h149.526v-138.039zM845.739 623.137h-149.526v138.039h149.526v-138.039z" p-id="32700"></path></svg>