<?xml version="1.0" standalone="no"?><!DOCTYPE svg PUBLIC "-//W3C//DTD SVG 1.1//EN" "http://www.w3.org/Graphics/SVG/1.1/DTD/svg11.dtd"><svg t="1522114149893" class="icon" style="" viewBox="0 0 1024 1024" version="1.1" xmlns="http://www.w3.org/2000/svg" p-id="1941" xmlns:xlink="http://www.w3.org/1999/xlink" width="200" height="200"><defs><style type="text/css"></style></defs><path d="M769.085333 282.809333c0 25.221333-44.008 56.566667-70.578666 56.566667l-337.636-5.605333c-26.362667 0-50.961333-25.741333-50.961334-50.962667V129.716c0-25.222667 24.598667-50.962667 50.961334-50.962667h357.149333c26.362667 0 51.065333 25.74 51.065333 50.962667v153.093333zM298.285333 773.849333c0-25.118667-21.381333-45.669333-47.744-45.669333H51.570667c-26.362667 0-47.744 20.550667-47.744 45.669333v126.418667c0 25.117333 21.381333 45.668 47.744 45.668h198.970666c26.362667 0 47.744-20.550667 47.744-45.668v-126.418667zM674.428 773.849333c0-25.118667-21.588-45.669333-47.745333-45.669333h-225.333334c-26.362667 0-47.744 20.550667-47.744 45.669333v126.418667c0 25.117333 21.381333 45.668 47.744 45.668h225.333334c26.156 0 47.745333-20.550667 47.745333-45.668v-126.418667zM1024 773.849333c0-25.118667-21.173333-45.669333-47.745333-45.669333H777.390667c-26.364 0-47.745333 20.550667-47.745334 45.669333v126.418667c0 25.117333 21.38 45.668 47.745334 45.668h198.864c26.572 0 47.745333-20.550667 47.745333-45.668v-126.418667zM871.010667 486.864c-31.76-6.124-306.084 0-306.084 0v-102.028h-50.961334v102.028H207.881333c-35.704 0-51.065333 16.917333-51.065333 50.962667v152.989333h51.065333v-101.924c0-16.398667 33.94-50.961333 50.962667-51.065333h255.121333v152.989333h50.961334V537.826667h255.225333c17.022667 0.104 50.858667 34.666667 50.858667 51.065333v101.924h51.066666v-101.924c2.281333-33.628 3.528-82.1-51.066666-102.028z" p-id="1942"></path></svg>