<?xml version="1.0" standalone="no"?><!DOCTYPE svg PUBLIC "-//W3C//DTD SVG 1.1//EN" "http://www.w3.org/Graphics/SVG/1.1/DTD/svg11.dtd"><svg t="1522384704801" class="icon" style="" viewBox="0 0 1024 1024" version="1.1" xmlns="http://www.w3.org/2000/svg" p-id="38814" xmlns:xlink="http://www.w3.org/1999/xlink" width="200" height="200"><defs><style type="text/css"></style></defs><path d="M995.1232 771.1744 960.2048 736.256l0-49.4592c0-14.1312-11.4688-25.6-25.6-25.6l-17.2032 0L917.4016 384l0 0 0 0 0-100.9664c0-50.0736-36.352-91.0336-80.7936-91.0336l-89.8048 0 0-36.9664c0-6.2464-0.6144-12.3904-1.6384-18.3296-2.1504-11.776-6.3488-22.8352-12.1856-32.5632-11.6736-19.3536-29.696-33.4848-50.7904-38.4-5.2224-1.2288-10.6496-1.8432-16.2816-1.8432L102.1952 63.8976c-5.5296 0-10.9568 0.6144-16.2816 1.8432-20.992 4.9152-39.1168 18.944-50.7904 38.4-5.8368 9.728-10.0352 20.6848-12.1856 32.5632-1.1264 5.9392-1.6384 11.9808-1.6384 18.3296l0 457.9328c0 6.2464 0.6144 12.3904 1.6384 18.3296 2.1504 11.8784 6.3488 22.8352 12.1856 32.5632 11.6736 19.3536 29.696 33.4848 50.7904 38.4 5.2224 1.2288 10.6496 1.8432 16.2816 1.8432l47.2064 0 0 79.6672c0 50.0736 36.352 91.0336 80.7936 91.0336l473.6 0L703.7952 891.904c0 14.1312 11.4688 25.6 25.6 25.6l49.4592 0 34.9184 34.9184c10.0352 10.0352 26.2144 10.0352 36.2496 0l34.9184-34.9184 49.4592 0c14.1312 0 25.6-11.4688 25.6-25.6l0-49.4592 34.9184-34.9184C1005.1584 797.4912 1005.1584 781.2096 995.1232 771.1744zM836.5056 234.7008c20.6848 0 38.1952 22.1184 38.1952 48.3328l0 79.6672L661.2992 362.7008l0-128L836.5056 234.7008zM149.2992 283.0336l0 378.2656L102.1952 661.2992c-20.6848 0-38.1952-22.1184-38.1952-48.3328L64 155.0336c0-26.2144 17.5104-48.3328 38.1952-48.3328l563.6096 0c20.6848 0 38.1952 22.1184 38.1952 48.3328l0 36.9664-85.2992 0L448 192 230.1952 192C185.7536 192 149.2992 232.96 149.2992 283.0336zM618.7008 234.7008l0 378.9824-66.2528-33.0752-19.0464-9.5232-19.0464 9.5232-66.2528 33.0752L448.1024 384l0 0 0 0L448.1024 234.7008 618.7008 234.7008zM405.2992 234.7008l0 128L192 362.7008l0-79.6672c0-26.2144 17.5104-48.3328 38.1952-48.3328L405.2992 234.7008zM703.7952 686.7968 703.7952 736.256l-35.0208 34.9184c-10.0352 10.0352-10.0352 26.2144 0 36.2496l24.576 24.576L230.1952 832c-20.6848 0-38.1952-22.1184-38.1952-48.3328L192 405.2992l213.2992 0 0 213.2992c0 23.4496 19.2512 42.7008 42.7008 42.7008l85.2992-42.7008 85.2992 42.7008c23.4496 0 42.7008-19.2512 42.7008-42.7008L661.2992 405.2992l213.2992 0 0 245.3504-24.576-24.576c-10.0352-10.0352-26.2144-10.0352-36.2496 0l-34.9184 35.0208-49.4592 0C715.264 661.1968 703.7952 672.6656 703.7952 686.7968zM915.3536 758.784l-89.088 89.088-1.4336 1.4336-1.4336 1.4336c-7.4752 7.4752-19.8656 7.4752-27.3408 0l-47.9232-47.9232c-7.4752-7.4752-7.4752-19.8656 0-27.3408l2.8672-2.7648c7.4752-7.4752 19.8656-7.4752 27.3408 0l31.4368 31.4368 75.4688-75.4688c8.2944-8.2944 21.9136-8.2944 30.208 0C923.648 736.8704 923.648 750.4896 915.3536 758.784z" p-id="38815"></path></svg>