<?xml version="1.0" standalone="no"?><!DOCTYPE svg PUBLIC "-//W3C//DTD SVG 1.1//EN" "http://www.w3.org/Graphics/SVG/1.1/DTD/svg11.dtd"><svg t="1522384100376" class="icon" style="" viewBox="0 0 1024 1024" version="1.1" xmlns="http://www.w3.org/2000/svg" p-id="34711" xmlns:xlink="http://www.w3.org/1999/xlink" width="200" height="200"><defs><style type="text/css"></style></defs><path d="M819.658544 327.881632 542.141996 177.022763c-9.402137-5.086855-19.72218-7.67275-30.042223-7.67275-10.340509 0-20.660552 2.584871-30.063713 7.67275L204.476533 327.965543c-20.911262 11.341303-33.982976 33.607422-33.982976 57.875129l0 292.628734c0 24.246217 13.071713 46.512337 34.004465 57.895595l277.538037 150.838404c9.402137 5.107321 19.72218 7.671727 30.042223 7.671727 10.340509 0 20.640086-2.564405 30.063713-7.671727L819.680033 736.302579c20.912285-11.404748 33.983999-33.649378 33.983999-57.896618L853.664032 385.756761C853.664032 361.532033 840.591295 339.26489 819.658544 327.881632M832.313771 678.405961c0 16.471137-8.756431 31.460526-22.850427 39.132252L531.92633 868.460528c-6.109138 3.315512-12.94687 5.066389-19.848047 5.066389-6.901177 0-13.739932-1.750877-19.868513-5.066389L214.712665 717.601658c-14.114462-7.67275-22.870894-22.662139-22.870894-39.132252L191.841771 385.840672c0-16.490579 8.756431-31.480992 22.829961-39.132252l277.538037-150.921291c6.128581-3.335978 13.009292-5.086855 19.890003-5.086855 6.879688 0 13.71742 1.750877 19.826558 5.066389l277.538037 150.880359c14.093996 7.67275 22.850427 22.64065 22.850427 39.111786L832.314795 678.405961z" p-id="34712"></path><path d="M552.128441 401.893276c-12.550851-21.807678-38.862099-25.706475-38.862099-25.706475s-83.603093-13.780865-89.754187-14.614859c-10.736529-1.438769-19.784602 3.418866-25.059745 14.092973-5.942339 12.008498-31.752168 85.270059-31.752168 85.270059-10.256598 29.228695 2.210341 46.867424 2.210341 46.867424l105.953124 183.737698c0 0 10.736529 18.638499 28.770254 8.193613l146.58759-84.70724c0.166799 0.271176 18.618033-10.778484 8.026814-29.125341L552.128441 401.893276zM460.977441 456.308607c-15.135722 8.859785-34.483372 3.606131-43.198871-11.738345-8.756431-15.32401-3.585665-34.963303 11.550057-43.802622 15.136745-8.860808 34.525328-3.62762 43.240827 11.737322C481.305419 427.850461 476.114187 447.447798 460.977441 456.308607" p-id="34713"></path></svg>