<?xml version="1.0" standalone="no"?><!DOCTYPE svg PUBLIC "-//W3C//DTD SVG 1.1//EN" "http://www.w3.org/Graphics/SVG/1.1/DTD/svg11.dtd"><svg t="1522383936968" class="icon" style="" viewBox="0 0 1024 1024" version="1.1" xmlns="http://www.w3.org/2000/svg" p-id="33992" xmlns:xlink="http://www.w3.org/1999/xlink" width="200" height="200"><defs><style type="text/css"></style></defs><path d="M429.32965 400.76764c-15.135722 8.840342-20.306488 28.479635-11.550057 43.802622 8.715499 15.344476 28.063149 20.59813 43.198871 11.738345 15.135722-8.860808 20.326954-28.459169 11.592013-43.803645C463.854978 397.140019 444.466396 391.907854 429.32965 400.76764z" p-id="33993"></path><path d="M819.658544 327.881632 542.141996 177.022763c-9.402137-5.086855-19.72218-7.67275-30.042223-7.67275-10.340509 0-20.660552 2.584871-30.063713 7.67275L204.476533 327.965543c-20.911262 11.341303-33.982976 33.607422-33.982976 57.875129l0 292.628734c0 24.246217 13.071713 46.512337 34.004465 57.895595l277.538037 150.838404c9.402137 5.107321 19.72218 7.671727 30.042223 7.671727 10.340509 0 20.640086-2.564405 30.063713-7.671727L819.680033 736.302579c20.912285-11.404748 33.983999-33.649378 33.983999-57.896618L853.664032 385.756761C853.664032 361.532033 840.591295 339.26489 819.658544 327.881632zM650.22155 615.027491 503.63396 699.734732c-18.033725 10.444886-28.770254-8.193613-28.770254-8.193613l-105.953124-183.737698c0 0-12.467963-17.637706-2.210341-46.867424 0 0 25.810852-73.261561 31.752168-85.270059 5.275143-10.674107 14.323217-15.531741 25.059745-14.092973 6.151094 0.833995 89.754187 14.614859 89.754187 14.614859s26.311249 3.898797 38.862099 25.706475l106.119923 184.007851C668.839583 604.249007 650.388349 615.297644 650.22155 615.027491z" p-id="33994"></path></svg>