<?xml version="1.0" standalone="no"?><!DOCTYPE svg PUBLIC "-//W3C//DTD SVG 1.1//EN" "http://www.w3.org/Graphics/SVG/1.1/DTD/svg11.dtd"><svg t="1523156194636" class="icon" style="" viewBox="0 0 1289 1024" version="1.1" xmlns="http://www.w3.org/2000/svg" p-id="1616" xmlns:xlink="http://www.w3.org/1999/xlink" width="251.7578125" height="200"><defs><style type="text/css"></style></defs><path d="M1152.90527 74.349837c37.335849 0 67.751692 30.415843 67.751692 67.751692l0 746.07326c0 37.335849-30.415843 67.751692-67.751692 67.751692L135.664314 955.92648c-37.335849 0-67.751692-30.415843-67.751692-67.751692L67.912622 142.262459c0-37.335849 30.415843-67.751692 67.751692-67.751692L1152.90527 74.510768M1152.90527 6.598146 135.664314 6.598146C60.992615 6.598146 0 67.590761 0 142.262459l0 746.07326c0 74.671698 60.992615 135.664314 135.664314 135.664314l1017.240956 0c74.671698 0 135.664314-60.992615 135.664314-135.664314L1288.569584 142.262459C1288.569584 67.590761 1227.576968 6.598146 1152.90527 6.598146L1152.90527 6.598146z" p-id="1617"></path><path d="M696.02391 749.935589c-28.967469-100.58149-108.628009-177.345283-206.312752-205.186239 48.440046-28.484678 80.947983-81.108913 80.947983-141.296877 0-90.442876-73.223325-163.6662-163.6662-163.6662s-163.6662 73.223325-163.6662 163.6662c0 60.509824 32.829798 113.455921 81.752635 141.779668C227.877424 573.394958 148.860605 649.83689 120.054066 749.935589c-5.149772 18.024203 5.310703 36.853058 23.173975 42.00283 3.218608 0.965582 6.276285 1.287443 9.333962 1.287443 14.805595 0 28.323748-9.655823 32.507938-24.461418 28.323748-98.650325 119.893136-167.68946 222.727651-167.68946 102.834515 0 194.403904 68.878204 222.727651 167.52853 5.149772 18.024203 23.817697 28.323748 42.00283 23.173975C690.713208 786.788647 701.173682 767.959792 696.02391 749.935589zM406.992941 307.537964c52.946096 0 95.914509 42.968412 95.914509 95.914509 0 52.946096-42.968412 95.914509-95.914509 95.914509-52.946096 0-95.914509-42.968412-95.914509-95.914509C311.078432 350.506376 354.046844 307.537964 406.992941 307.537964z" p-id="1618"></path><path d="M983.445576 379.634776 780.029571 379.634776c-18.667925 0-33.956311-15.127456-33.956311-33.956311s15.127456-33.956311 33.956311-33.956311l203.255075 0c18.667925 0 33.956311 15.127456 33.956311 33.956311S1002.1135 379.634776 983.445576 379.634776z" p-id="1619"></path><path d="M983.445576 549.09447 780.029571 549.09447c-18.667925 0-33.956311-15.127456-33.956311-33.956311 0-18.667925 15.127456-33.956311 33.956311-33.956311l203.255075 0c18.667925 0 33.956311 15.127456 33.956311 33.956311C1017.240956 533.967014 1002.1135 549.09447 983.445576 549.09447z" p-id="1620"></path><path d="M1086.601952 718.715094 780.029571 718.715094c-18.667925 0-33.956311-15.127456-33.956311-33.956311 0-18.667925 15.127456-33.956311 33.956311-33.956311l306.411451 0c18.667925 0 33.956311 15.127456 33.956311 33.956311C1120.397332 703.587638 1105.269876 718.715094 1086.601952 718.715094z" p-id="1621"></path></svg>