<?xml version="1.0" standalone="no"?><!DOCTYPE svg PUBLIC "-//W3C//DTD SVG 1.1//EN" "http://www.w3.org/Graphics/SVG/1.1/DTD/svg11.dtd"><svg t="1522379853521" class="icon" style="" viewBox="0 0 1024 1024" version="1.1" xmlns="http://www.w3.org/2000/svg" p-id="16390" xmlns:xlink="http://www.w3.org/1999/xlink" width="200" height="200"><defs><style type="text/css"></style></defs><path d="M640 423.15a290.08 290.08 0 0 1 128 0V256H640zM832 128H192a64.19 64.19 0 0 0-64 64v640a64.19 64.19 0 0 0 64 64h297.36A288.51 288.51 0 0 1 446 832H192.11l-0.11-0.11V192.11l0.11-0.11h639.78l0.11 0.11V446a288.52 288.52 0 0 1 64 43.4V192a64.19 64.19 0 0 0-64-64zM448 572a289.22 289.22 0 0 1 128-126v-62H448z m-64 196V320H256v448z" p-id="16391"></path><path d="M704 448c-141.38 0-256 114.62-256 256s114.62 256 256 256 256-114.62 256-256-114.61-256-256-256z m32 320h-64V544h64z m0 96h-64v-64h64z" p-id="16392"></path></svg>